<svg width="275" height="437" viewBox="0 0 275 437" fill="none" xmlns="http://www.w3.org/2000/svg">
<path d="M70.2141 170.268L71.5118 172.292L70.6507 175.597L68.4858 177.62L66.5422 177.986L65.0292 176.883L70.2141 170.268Z" fill="#FCE3D4"/>
<path d="M63.2949 215.492L60.9208 214.571L60.0536 213.651L59.4078 214.022L57.8947 213.468L46 181.297H51.4062L63.7315 213.285L63.2949 215.492Z" fill="#846400"/>
<path d="M87.2997 204.646L86.2173 206.664L63.2949 215.492L50.7603 183.137L51.4062 181.297L85.5654 173.761L87.0784 175.78L87.2997 204.646Z" fill="#B48A00"/>
<path d="M46 181.297L50.7603 183.137L72.379 178.358L85.5654 175.414L87.0784 173.761L85.5654 172.292L77.7851 173.944L46 181.297Z" fill="#9D7700"/>
<path d="M68.0552 179.273L73.892 182.4L75.6203 180.376L72.379 178.358L77.7851 173.944L76.7027 171.554L72.5942 169.531L70.2141 170.268L68.0552 179.273Z" fill="#F4C9B2"/>
<path d="M87.2997 151.149L82.1088 147.29L79.0828 147.656L71.9484 165.671L72.5942 167.507L78.2157 171L80.5958 170.451L85.7807 163.831L87.515 159.788L87.2997 151.149Z" fill="#F3D65D"/>
<path d="M79.0828 147.656L88.1609 153.905L89.2433 127.8V122.1L79.0828 147.656Z" fill="#CBAC14"/>
<path d="M71.9484 165.671L80.5958 170.451L77.7851 173.944L70.2141 170.268L71.9484 165.671Z" fill="#CBAC14"/>
<path d="M98.3094 110.863L103.943 117.692L107.651 121.388L114.659 124.566L129.138 119.4L132.409 107.288L101.114 108.478L98.3094 110.863Z" fill="#C1907D"/>
<path d="M125.633 110.583L121.549 121.881L131.009 115.032L141.75 97.9525L140.351 87.2339L127.972 74.3237H123.534L115.634 110.075L125.633 110.583Z" fill="#F4C9B2"/>
<path d="M123.923 75.3661L136.38 87.6305L141.983 82.6627L145.954 83.0644L150.858 80.2831L156.461 69.1627L151.791 66.1831L130.304 64.3932L126.805 70.5508L123.767 71.9441L123.534 74.3237L123.923 75.3661Z" fill="#66483A"/>
<path d="M135.447 91.2051L141.75 97.9525L144.555 93.3864L141.517 90.4068L135.447 91.2051Z" fill="#C1907D"/>
<path d="M138.479 79.0881L135.447 91.2051L144.555 93.3864L150.858 80.2831L138.479 79.0881Z" fill="#FCE3D4"/>
<path d="M141.983 82.6627L145.954 83.0644L140.351 87.2339L141.983 82.6627Z" fill="#C1907D"/>
<path d="M121.896 54.4678L119.563 59.0339L127.505 63.2034L143.149 67.1746L156.461 69.1627L138.712 43.1492L129.604 45.7322L121.896 54.4678Z" fill="#82624D"/>
<path d="M156.461 69.1627L119.563 59.0339L120.729 61.617L123.534 69.1627V71.3949L156.461 69.1627Z" fill="#98796A"/>
<path d="M120.729 44.5373L125.633 43.1492H138.712L119.563 59.0339L120.729 61.617L106.484 63.2034L104.385 61.022L108.117 55.261L120.729 44.5373Z" fill="#98796A"/>
<path d="M113.493 36L125.633 43.1492L104.385 61.022L102.98 56.2525L108.117 39.3763L113.493 36Z" fill="#82624D"/>
<path d="M82.1926 43.5458L84.5309 48.7068L98.3094 59.4305L104.385 61.022L113.493 36L82.1926 43.5458Z" fill="#98796A"/>
<path d="M79.627 50.6949L82.1926 43.5458L104.385 61.022L102.28 63.0051H85.2305L82.8982 60.8237L80.0935 58.2407L79.627 50.6949Z" fill="#82624D"/>
<path d="M66.315 64.5966L69.8194 65.7864L80.56 63.4017L82.8982 60.8237L82.1926 43.5458L66.315 64.5966Z" fill="#98796A"/>
<path d="M77.0675 78.8593L66.315 64.5966L82.8982 60.8237L84.2976 64.3932L79.627 77.8983L77.0675 78.8593Z" fill="#82624D"/>
<path d="M91.0733 110.969L115.634 110.075L124.258 99.5237L125.633 67.2407L119.563 59.0339L104.385 61.022L88.735 60.8237L84.7641 62.4102L77.0675 78.8593L79.627 101.949L91.0733 110.969Z" fill="#FCE3D4"/>
<path d="M85.9302 78.2949L81.9653 80.6797L89.6679 83.2576L94.8049 92.9898L96.6768 86.8322L96.2103 82.6627L93.4056 80.6797L85.9302 78.2949Z" fill="#F4C9B2"/>
<path d="M102.98 80.4814L99.948 82.4644L98.7758 86.6339L101.347 92.7915L108.823 83.2576L116.059 79.4898L110.689 77.7L102.98 80.4814Z" fill="#F4C9B2"/>
<path d="M108.823 81.6712C109.756 81.4729 110.689 82.2661 110.689 83.0644C110.735 83.2905 110.721 83.5226 110.647 83.7434C110.573 83.9642 110.441 84.1679 110.262 84.3395C110.083 84.511 109.86 84.6459 109.611 84.7342C109.362 84.8224 109.092 84.8617 108.823 84.8492C108.337 84.8207 107.88 84.6438 107.536 84.3513C107.192 84.0588 106.984 83.6703 106.951 83.2576C106.718 82.4644 107.651 81.6712 108.823 81.6712Z" fill="#2B2B2B"/>
<path d="M81.9653 80.6797L85.697 79.2915L93.4056 80.6797V78.8898L85.4638 77.7L81.9653 80.6797Z" fill="#66483A"/>
<path d="M102.98 78.4932V80.4814L111.621 78.6915L116.059 79.4898L111.621 76.7085L102.98 78.4932Z" fill="#66483A"/>
<path d="M88.9682 82.0678C90.1344 82.0678 91.0733 82.6627 91.0733 83.6593C91.0396 84.0715 90.8314 84.4593 90.4873 84.751C90.1431 85.0427 89.6863 85.2185 89.2014 85.2458C88.0353 85.2458 87.1024 84.6509 87.1024 83.6593C87.0983 83.4498 87.1438 83.2417 87.2361 83.0474C87.3284 82.8531 87.4655 82.6765 87.6395 82.5281C87.8135 82.3797 88.0208 82.2625 88.249 82.1834C88.4772 82.1044 88.7218 82.065 88.9682 82.0678Z" fill="#2B2B2B"/>
<path d="M98.3094 95.3746L94.8049 92.9898L98.0762 91.8L101.347 92.7915L98.3094 95.3746Z" fill="#C1907D"/>
<path d="M93.872 98.9492L92.9391 99.9407L94.8049 100.932L106.018 100.536L108.35 98.9492L107.417 98.1509L105.551 99.3458L95.2774 99.7424L93.872 98.9492Z" fill="#C1907D"/>
<path d="M111.729 239.39L64.1621 232.037L74.7591 230.563L112.375 226.337L145.673 229.831L161.24 231.483L111.729 239.39Z" fill="#2B2B2B" fill-opacity="0.15"/>
<path d="M138.323 142.688L141.134 125.593L144.375 121.185L166 148.388L162.322 150.046L140.703 145.449L138.323 142.688Z" fill="#CBAC14"/>
<path d="M73.0248 230.563L99.8403 230.197V226.52L97.2449 225.417L78.6463 225.783L73.0248 226.886V230.563Z" fill="#4F5253"/>
<path d="M126.213 234.244L146.325 233.873L146.11 229.831L144.16 228.544L130.322 228.91L126.213 230.014V234.244Z" fill="#4F5253"/>
<path d="M86.4326 218.802L73.0248 226.886L99.8403 226.52L99.4038 218.802L97.4602 217.698H90.3257L86.4326 218.802Z" fill="#6F7173"/>
<path d="M129.245 222.295L126.213 230.014L146.11 229.831L140.703 221.924L138.323 220.637L130.974 220.82L129.245 222.295Z" fill="#6F7173"/>
<path d="M85.7807 185.156L86.002 200.786L89.8892 203.542L103.082 204.275L107.836 202.251L111.299 195.086L110.647 191.776L93.1365 173.573L85.7807 185.156Z" fill="#846400"/>
<path d="M132.487 173.207L113.027 190.856L111.299 195.086L116.268 202.622L120.807 204.646H136.38L141.349 203.171L142.001 185.156L132.487 173.207Z" fill="#846400"/>
<path d="M92.9212 177.986L111.299 195.086L130.974 178.358L135.082 166.592L90.9716 167.324L92.9212 177.986Z" fill="#755800"/>
<path d="M86.002 200.786L107.836 202.251L99.4038 218.802H86.4326L86.002 200.786Z" fill="#755800"/>
<path d="M116.268 202.622L141.349 203.171L140.703 221.924L129.245 222.295L116.268 202.622Z" fill="#755800"/>
<path d="M85.7807 185.156L92.9212 177.986L93.1365 169.164L89.2433 166.958L85.5654 169.347L85.7807 185.156Z" fill="#AB913C"/>
<path d="M142.647 168.61L137.241 167.324L130.974 169.164V178.358L142.001 185.156L142.647 168.61Z" fill="#AB913C"/>
<path d="M85.3502 163.098L87.7303 161.812L140.052 160.525L142.862 162.178L142.432 171.92L85.5654 172.292L85.3502 163.098Z" fill="#846400"/>
<path d="M85.3502 163.098L106.975 162.732L108.267 159.971L109.134 147.102L103.297 141.773L89.8892 137.914L87.515 139.566L85.3502 163.098Z" fill="#E4C728"/>
<path d="M98.5426 119.344L95.5166 121.734L93.3517 120.997L89.2433 122.1L87.515 139.566L91.4082 140.853L94.4342 140.303L96.1625 142.139L105.025 144.712L107.19 143.608L109.786 142.322L113.242 125.41L102.866 120.076L98.5426 119.344Z" fill="#F3D65D"/>
<path d="M106.975 162.732V145.815L109.349 144.895L111.514 142.51L117.996 141.956L120.592 144.163L132.271 145.266L138.108 148.576L143.078 155.192L142.862 162.178L106.975 162.732Z" fill="#F3D65D"/>
<path d="M114.109 122.471L110.862 124.856L107.19 143.608L109.349 144.895L120.592 144.163L134.867 119.71L134.645 116.771L130.974 116.405L114.109 122.471Z" fill="#E4C728"/>
<path d="M144.375 121.185L139.621 118.978L135.297 121.734L125.783 138.28L132.917 144.163L143.514 143.608L144.375 121.185Z" fill="#E4C728"/>
<path d="M125.783 138.28L129.676 135.707L134 141.59L129.245 141.773L125.783 138.28Z" fill="#F4C9B2"/>
<path d="M89.6739 159.239L92.2693 163.098L95.08 159.051L92.4846 157.947L89.6739 159.239Z" fill="#A2A2A2"/>
<path d="M90.7563 140.669L89.6739 159.239L95.08 159.051L96.1625 142.139L93.7823 139.932L90.7563 140.669Z" fill="#9D7700"/>
<path d="M93.3517 120.997L90.7563 140.669L96.1625 142.139L98.5426 119.344L93.3517 120.997Z" fill="#B48A00"/>
<path d="M127.948 157.764L126.865 162.361L122.326 159.051L124.27 156.844L127.948 157.764Z" fill="#A2A2A2"/>
<path d="M122.326 159.051L127.948 157.764L124.7 148.942L123.403 146.736L118.648 149.308L122.326 159.051Z" fill="#9D7700"/>
<path d="M134.645 116.771L139.621 118.978L127.732 139.012L125.352 141.402L122.972 137.176L134.645 116.771Z" fill="#B48A00"/>
<path d="M103.728 160.154L106.975 157.581L110.216 160.154L106.975 162.732L103.728 160.154Z" fill="#9D7700"/>
<path d="M110.001 123.758H105.892L98.5426 119.344L103.943 117.692L112.375 121.551L110.001 123.758Z" fill="#F1BC68"/>
<path d="M134.645 116.771L132.409 112.215L105.892 123.758L110.431 126.331L134.645 116.771Z" fill="#E1A842"/>
<path d="M157.353 162.91L166 148.388L139.406 142.876L136.164 144.346L134.43 148.576L135.513 151.149L157.353 162.91Z" fill="#F3D65D"/>
<path d="M118.218 138.097L116.483 144.346L118.648 149.308L121.028 146.919L123.403 139.383L122.972 137.176L118.218 138.097Z" fill="#F4C9B2"/>
<path d="M134 141.59L122.972 137.176L118.648 149.308L130.974 148.759L132.702 146.919L134.43 143.425L134 141.59Z" fill="#FCE3D4"/>
<path d="M134 141.59L130.974 148.759L135.513 151.149L139.406 142.876L134 141.59Z" fill="#CBAC14"/>
<path d="M142.862 162.178L130.974 148.759L143.078 155.192L142.862 162.178ZM52.7039 188.11L85.5953 179.288L78.431 209.608L86.2053 206.664L85.5535 175.414L72.379 178.373L75.6203 180.407L73.892 182.441L68.0552 179.319L50.7543 183.178L52.7039 188.11Z" fill="#2B2B2B" fill-opacity="0.1"/>
<path d="M88.735 60.8237L77.0675 78.8593L82.8982 60.8237H88.735Z" fill="#C1907D"/>
<path d="M104.164 144.346L107.405 142.139L110.216 144.895L106.754 147.102L104.164 144.346Z" fill="#9D7700"/>
<path d="M107.19 128.537L110.431 126.331L113.027 129.269L109.564 131.476L107.19 128.537Z" fill="#9D7700"/>
<path d="M96.2103 82.6627L99.948 82.4644L101.347 92.7915L94.8049 92.9898L96.2103 82.6627Z" fill="#FFEFE7"/>
<path d="M48.1649 183.869L59.4078 214.022L60.9208 214.571L49.6779 184.424L48.1649 183.869Z" fill="#CDCDCC"/>
</svg>
